# xmcd
#
# Track frame offsets:
#  182
#  12235
#  28020
#  40760
#  53797
#  71402
#  85592
#  99502
#  118447
#  131252
#  150397
#  164952
#  182070
#  193137
#  204157
#  216650
#  233680
#  250442
#  265830
#  282027
#
# Disc length: 3957 seconds
#
# Revision: 1
# Processed by: cddbd v1.5.1PL0 Copyright (c) Steve Scherf et al.
# Submitted via: Collectorz.com Music Collector 6.9
#
DISCID=1c0f7314
DTITLE=Various Artist - The All Time Greatest Country Songs [CD 2)
DYEAR=1997
DGENRE=
TTITLE0=Dolly Parton - Jolene
TTITLE1=Tanya Tucker - Down To My Last Teardrop
TTITLE2=Leann Rimes - Blue
TTITLE3=Mary Chapin Carpenter - Let Me Into Your Heart
TTITLE4=Judds - Love Can Build A Bridge
TTITLE5=Elvis Costello and the Attractions - A Good Year For The Roses
TTITLE6=Don Williams - I'm Just A Country Boy
TTITLE7=Nanci Griffith - From A Distance
TTITLE8=Bobby Bare - Detroit City
TTITLE9=Bobby Gentry - Ode To Billy Joe
TTITLE10=Bellamy Brothers - If I Said You Had A Beautiful Body (Would You Hold
TTITLE11=Mac Davis - Memories
TTITLE12=Neil Diamond - Kentucky Woman
TTITLE13=Roger Miller - King Of The Road
TTITLE14=Johnny Cash and June Carter Cash - Jackson
TTITLE15=Johnny Cash - Riders In The Sky
TTITLE16=Tony Joe White - Polk Salad Annie
TTITLE17=Billy Ray Cyrus - Achy Breaky Heart
TTITLE18=Charlie Daniels Band - The Devil Went Down To Geogia
TTITLE19=Eric Weissberg and Steve Mandell - Duelling Banjos
EXTD=
EXTT0=
EXTT1=
EXTT2=
EXTT3=
EXTT4=
EXTT5=
EXTT6=
EXTT7=
EXTT8=
EXTT9=
EXTT10=
EXTT11=
EXTT12=
EXTT13=
EXTT14=
EXTT15=
EXTT16=
EXTT17=
EXTT18=
EXTT19=
PLAYORDER=
